<?xml version="1.0" standalone="no"?>
<!DOCTYPE svg PUBLIC "-//W3C//DTD SVG 20010904//EN"
 "http://www.w3.org/TR/2001/REC-SVG-20010904/DTD/svg10.dtd">
<svg version="1.0" xmlns="http://www.w3.org/2000/svg"
 width="200.000000pt" height="60.000000pt" viewBox="0 0 200.000000 60.000000"
 preserveAspectRatio="xMidYMid meet">

<g transform="translate(0.000000,60.000000) scale(0.100000,-0.100000)"
fill="#000000" stroke="none">
<path d="M2 313 l3 -208 630 0 630 0 -622 2 -623 3 0 200 0 200 960 0 960 0 3
-207 2 -208 3 213 2 212 -975 0 -975 0 2 -207z"/>
<path d="M38 368 c15 -15 16 -110 2 -124 -7 -7 -2 -10 13 -10 20 0 22 4 19 33
-5 43 11 42 38 -2 12 -19 26 -35 31 -35 14 0 11 9 -11 40 -17 24 -18 29 -5 40
18 15 19 42 3 58 -7 7 -32 12 -57 12 -35 0 -42 -3 -33 -12z m77 -28 c0 -18 -6
-26 -22 -28 -20 -3 -23 1 -23 28 0 27 3 31 23 28 16 -2 22 -10 22 -28z"/>
<path d="M218 373 c8 -3 12 -28 12 -74 0 -44 4 -68 10 -64 6 3 10 35 10 71 0
61 1 64 25 64 13 0 29 -8 34 -17 9 -16 10 -16 11 5 0 20 -4 22 -57 21 -32 0
-52 -3 -45 -6z"/>
<path d="M388 371 c10 -6 13 -26 10 -70 -2 -35 1 -62 7 -65 6 -2 9 17 7 48
l-3 51 22 -47 c12 -27 25 -48 29 -48 4 0 18 24 31 53 l24 52 5 -55 c7 -82 25
-71 25 16 0 92 -16 97 -52 17 l-25 -58 -29 58 c-19 36 -36 57 -47 57 -13 0
-14 -2 -4 -9z"/>
<path d="M661 359 c-47 -122 -50 -133 -36 -114 9 11 21 37 27 57 11 38 27 51
29 23 2 -24 4 -28 22 -62 32 -60 36 -34 6 39 -16 39 -31 74 -34 76 -2 3 -9 -6
-14 -19z"/>
<path d="M798 373 c8 -3 12 -27 12 -68 0 -35 3 -66 8 -68 4 -3 6 20 4 51 l-3
57 23 -25 c13 -14 35 -41 50 -60 l28 -35 0 72 c0 48 4 73 13 76 6 3 3 6 -8 6
-18 1 -20 -4 -17 -51 l3 -53 -40 45 c-22 25 -41 48 -41 53 0 4 -10 7 -22 6
-13 0 -17 -3 -10 -6z"/>
<path d="M1088 368 c15 -15 16 -110 1 -125 -9 -9 -7 -11 7 -9 14 2 20 13 22
40 3 32 6 37 25 34 18 -2 22 -10 22 -35 0 -38 9 -42 25 -12 9 16 8 24 -3 37
-12 13 -13 22 -6 35 17 29 -7 47 -59 47 -36 0 -43 -3 -34 -12z m75 -10 c7 -21
-4 -38 -24 -38 -14 0 -19 7 -19 25 0 18 5 25 19 25 11 0 21 -6 24 -12z"/>
<path d="M1283 305 c-17 -41 -26 -72 -21 -69 9 6 29 48 34 73 7 35 22 29 39
-16 19 -51 31 -70 40 -62 5 6 -41 128 -54 141 -4 5 -21 -26 -38 -67z"/>
<path d="M1448 373 c8 -3 12 -28 12 -76 0 -90 17 -78 22 16 3 66 3 67 -22 66
-14 0 -19 -3 -12 -6z"/>
<path d="M1623 307 c-20 -51 -25 -74 -17 -74 7 0 11 4 8 8 -3 5 1 19 8 31 13
25 15 30 17 53 2 29 18 14 36 -32 19 -50 31 -70 40 -62 4 5 -46 133 -57 144
-3 3 -18 -28 -35 -68z"/>
<path d="M1788 371 c9 -6 13 -27 11 -71 -2 -49 1 -64 12 -65 11 -2 14 6 11 31
-5 44 6 43 45 -3 42 -51 54 -35 12 17 l-34 42 33 29 c18 16 27 29 20 29 -7 0
-19 -9 -25 -20 -7 -10 -22 -24 -34 -31 -20 -10 -21 -9 -17 20 4 28 2 31 -21
31 -18 0 -22 -3 -13 -9z"/>
<path d="M302 250 c-8 -13 -8 -20 -2 -20 6 0 13 7 17 15 9 24 -1 27 -15 5z"/>
<path d="M1522 250 c-10 -17 -10 -20 3 -20 8 0 15 9 15 20 0 11 -1 20 -3 20
-1 0 -8 -9 -15 -20z"/>
</g>
</svg>
